<mxfile host="app.diagrams.net" modified="2021-01-19T03:07:27.214Z" agent="5.0 (Windows NT 10.0; Win64; x64) AppleWebKit/537.36 (KHTML, like Gecko) Chrome/87.0.4280.141 Safari/537.36" etag="kwYj0UWUuFk5OrQK7ZTI" version="14.2.4" type="github">
  <diagram id="C5RBs43oDa-KdzZeNtuy" name="Page-1">
    <mxGraphModel dx="1247" dy="725" grid="1" gridSize="10" guides="1" tooltips="1" connect="1" arrows="1" fold="1" page="1" pageScale="1" pageWidth="827" pageHeight="1169" math="0" shadow="0">
      <root>
        <mxCell id="WIyWlLk6GJQsqaUBKTNV-0" />
        <mxCell id="WIyWlLk6GJQsqaUBKTNV-1" parent="WIyWlLk6GJQsqaUBKTNV-0" />
        <mxCell id="MU5IiB2vjCHLdid9Sq_6-0" value="Actor" style="shape=umlActor;verticalLabelPosition=bottom;verticalAlign=top;html=1;outlineConnect=0;" vertex="1" parent="WIyWlLk6GJQsqaUBKTNV-1">
          <mxGeometry x="40" y="610" width="30" height="60" as="geometry" />
        </mxCell>
        <mxCell id="MU5IiB2vjCHLdid9Sq_6-1" value="&lt;span&gt;是否鉴权通过&lt;/span&gt;" style="rhombus;whiteSpace=wrap;html=1;" vertex="1" parent="WIyWlLk6GJQsqaUBKTNV-1">
          <mxGeometry x="200" y="600" width="150" height="80" as="geometry" />
        </mxCell>
        <mxCell id="MU5IiB2vjCHLdid9Sq_6-3" value="" style="endArrow=classic;html=1;exitX=0.5;exitY=0.5;exitDx=0;exitDy=0;exitPerimeter=0;" edge="1" parent="WIyWlLk6GJQsqaUBKTNV-1" source="MU5IiB2vjCHLdid9Sq_6-0">
          <mxGeometry width="50" height="50" relative="1" as="geometry">
            <mxPoint x="70" y="640" as="sourcePoint" />
            <mxPoint x="200" y="639.5" as="targetPoint" />
          </mxGeometry>
        </mxCell>
        <mxCell id="MU5IiB2vjCHLdid9Sq_6-7" value="" style="endArrow=classic;html=1;" edge="1" parent="WIyWlLk6GJQsqaUBKTNV-1">
          <mxGeometry width="50" height="50" relative="1" as="geometry">
            <mxPoint x="274.5" y="680" as="sourcePoint" />
            <mxPoint x="274.5" y="780" as="targetPoint" />
          </mxGeometry>
        </mxCell>
        <mxCell id="MU5IiB2vjCHLdid9Sq_6-8" value="" style="rounded=0;whiteSpace=wrap;html=1;" vertex="1" parent="WIyWlLk6GJQsqaUBKTNV-1">
          <mxGeometry x="200" y="770" width="150" height="60" as="geometry" />
        </mxCell>
        <mxCell id="MU5IiB2vjCHLdid9Sq_6-10" value="kafka 队列" style="rounded=0;whiteSpace=wrap;html=1;" vertex="1" parent="WIyWlLk6GJQsqaUBKTNV-1">
          <mxGeometry x="510" y="670" width="120" height="60" as="geometry" />
        </mxCell>
        <mxCell id="MU5IiB2vjCHLdid9Sq_6-11" value="&#xa;&#xa;&lt;span style=&quot;color: rgb(0, 0, 0); font-family: helvetica; font-size: 12px; font-style: normal; font-weight: 400; letter-spacing: normal; text-align: center; text-indent: 0px; text-transform: none; word-spacing: 0px; background-color: rgb(248, 249, 250); display: inline; float: none;&quot;&gt;kafka 队列&lt;/span&gt;&#xa;&#xa;" style="rounded=0;whiteSpace=wrap;html=1;" vertex="1" parent="WIyWlLk6GJQsqaUBKTNV-1">
          <mxGeometry x="510" y="770" width="120" height="60" as="geometry" />
        </mxCell>
        <mxCell id="MU5IiB2vjCHLdid9Sq_6-13" value="&lt;span&gt;kafka 队列&lt;/span&gt;" style="rounded=0;whiteSpace=wrap;html=1;" vertex="1" parent="WIyWlLk6GJQsqaUBKTNV-1">
          <mxGeometry x="510" y="860" width="120" height="60" as="geometry" />
        </mxCell>
        <mxCell id="MU5IiB2vjCHLdid9Sq_6-14" value="" style="endArrow=classic;html=1;entryX=0;entryY=0.5;entryDx=0;entryDy=0;exitX=1;exitY=0.5;exitDx=0;exitDy=0;" edge="1" parent="WIyWlLk6GJQsqaUBKTNV-1" source="MU5IiB2vjCHLdid9Sq_6-8" target="MU5IiB2vjCHLdid9Sq_6-10">
          <mxGeometry width="50" height="50" relative="1" as="geometry">
            <mxPoint x="350" y="810" as="sourcePoint" />
            <mxPoint x="400" y="760" as="targetPoint" />
          </mxGeometry>
        </mxCell>
        <mxCell id="MU5IiB2vjCHLdid9Sq_6-15" value="&lt;span&gt;打点api&lt;/span&gt;" style="text;html=1;align=center;verticalAlign=middle;resizable=0;points=[];autosize=1;" vertex="1" parent="WIyWlLk6GJQsqaUBKTNV-1">
          <mxGeometry x="100" y="620" width="60" height="20" as="geometry" />
        </mxCell>
        <mxCell id="MU5IiB2vjCHLdid9Sq_6-18" value="&lt;span&gt;协程并发&lt;/span&gt;&lt;br&gt;&lt;span&gt;中转处理&lt;/span&gt;" style="text;html=1;align=center;verticalAlign=middle;resizable=0;points=[];autosize=1;" vertex="1" parent="WIyWlLk6GJQsqaUBKTNV-1">
          <mxGeometry x="245" y="780" width="60" height="30" as="geometry" />
        </mxCell>
        <mxCell id="MU5IiB2vjCHLdid9Sq_6-19" value="" style="endArrow=classic;html=1;exitX=1;exitY=0.5;exitDx=0;exitDy=0;" edge="1" parent="WIyWlLk6GJQsqaUBKTNV-1" source="MU5IiB2vjCHLdid9Sq_6-8">
          <mxGeometry width="50" height="50" relative="1" as="geometry">
            <mxPoint x="350" y="810" as="sourcePoint" />
            <mxPoint x="508" y="800" as="targetPoint" />
          </mxGeometry>
        </mxCell>
        <mxCell id="MU5IiB2vjCHLdid9Sq_6-20" value="" style="endArrow=classic;html=1;entryX=0;entryY=0.5;entryDx=0;entryDy=0;exitX=1;exitY=0.5;exitDx=0;exitDy=0;" edge="1" parent="WIyWlLk6GJQsqaUBKTNV-1" source="MU5IiB2vjCHLdid9Sq_6-8" target="MU5IiB2vjCHLdid9Sq_6-13">
          <mxGeometry width="50" height="50" relative="1" as="geometry">
            <mxPoint x="350" y="800" as="sourcePoint" />
            <mxPoint x="530" y="720" as="targetPoint" />
          </mxGeometry>
        </mxCell>
        <mxCell id="MU5IiB2vjCHLdid9Sq_6-23" value="" style="endArrow=classic;html=1;entryX=0;entryY=0.5;entryDx=0;entryDy=0;entryPerimeter=0;" edge="1" parent="WIyWlLk6GJQsqaUBKTNV-1" target="MU5IiB2vjCHLdid9Sq_6-21">
          <mxGeometry width="50" height="50" relative="1" as="geometry">
            <mxPoint x="630" y="710" as="sourcePoint" />
            <mxPoint x="680" y="660" as="targetPoint" />
          </mxGeometry>
        </mxCell>
        <mxCell id="MU5IiB2vjCHLdid9Sq_6-24" value="" style="endArrow=classic;html=1;entryX=0;entryY=0.5;entryDx=0;entryDy=0;entryPerimeter=0;exitX=1;exitY=0.5;exitDx=0;exitDy=0;" edge="1" parent="WIyWlLk6GJQsqaUBKTNV-1" source="MU5IiB2vjCHLdid9Sq_6-11" target="MU5IiB2vjCHLdid9Sq_6-21">
          <mxGeometry width="50" height="50" relative="1" as="geometry">
            <mxPoint x="630" y="805" as="sourcePoint" />
            <mxPoint x="680" y="755" as="targetPoint" />
          </mxGeometry>
        </mxCell>
        <mxCell id="MU5IiB2vjCHLdid9Sq_6-25" value="" style="endArrow=classic;html=1;" edge="1" parent="WIyWlLk6GJQsqaUBKTNV-1" source="MU5IiB2vjCHLdid9Sq_6-21">
          <mxGeometry width="50" height="50" relative="1" as="geometry">
            <mxPoint x="630" y="890" as="sourcePoint" />
            <mxPoint x="819" y="810" as="targetPoint" />
          </mxGeometry>
        </mxCell>
        <mxCell id="MU5IiB2vjCHLdid9Sq_6-21" value="list data" style="shape=cylinder3;whiteSpace=wrap;html=1;boundedLbl=1;backgroundOutline=1;size=15;" vertex="1" parent="WIyWlLk6GJQsqaUBKTNV-1">
          <mxGeometry x="800" y="760" width="60" height="80" as="geometry" />
        </mxCell>
        <mxCell id="MU5IiB2vjCHLdid9Sq_6-26" value="" style="endArrow=classic;html=1;entryX=0;entryY=0.5;entryDx=0;entryDy=0;entryPerimeter=0;" edge="1" parent="WIyWlLk6GJQsqaUBKTNV-1" target="MU5IiB2vjCHLdid9Sq_6-21">
          <mxGeometry width="50" height="50" relative="1" as="geometry">
            <mxPoint x="630" y="890" as="sourcePoint" />
            <mxPoint x="819" y="810" as="targetPoint" />
          </mxGeometry>
        </mxCell>
        <mxCell id="MU5IiB2vjCHLdid9Sq_6-27" value="中转server&lt;br&gt;hash table" style="rounded=0;whiteSpace=wrap;html=1;" vertex="1" parent="WIyWlLk6GJQsqaUBKTNV-1">
          <mxGeometry x="770" y="990" width="120" height="60" as="geometry" />
        </mxCell>
        <mxCell id="MU5IiB2vjCHLdid9Sq_6-28" value="" style="endArrow=classic;html=1;entryX=0.5;entryY=0;entryDx=0;entryDy=0;exitX=0.5;exitY=1;exitDx=0;exitDy=0;exitPerimeter=0;" edge="1" parent="WIyWlLk6GJQsqaUBKTNV-1" source="MU5IiB2vjCHLdid9Sq_6-21" target="MU5IiB2vjCHLdid9Sq_6-27">
          <mxGeometry width="50" height="50" relative="1" as="geometry">
            <mxPoint x="390" y="990" as="sourcePoint" />
            <mxPoint x="440" y="940" as="targetPoint" />
          </mxGeometry>
        </mxCell>
        <mxCell id="MU5IiB2vjCHLdid9Sq_6-30" value="日志库mysql分表" style="shape=cylinder3;whiteSpace=wrap;html=1;boundedLbl=1;backgroundOutline=1;size=15;" vertex="1" parent="WIyWlLk6GJQsqaUBKTNV-1">
          <mxGeometry x="800" y="1160" width="60" height="80" as="geometry" />
        </mxCell>
        <mxCell id="MU5IiB2vjCHLdid9Sq_6-31" value="" style="endArrow=classic;html=1;entryX=0.5;entryY=0;entryDx=0;entryDy=0;entryPerimeter=0;exitX=0.5;exitY=1;exitDx=0;exitDy=0;" edge="1" parent="WIyWlLk6GJQsqaUBKTNV-1" source="MU5IiB2vjCHLdid9Sq_6-27" target="MU5IiB2vjCHLdid9Sq_6-30">
          <mxGeometry width="50" height="50" relative="1" as="geometry">
            <mxPoint x="390" y="990" as="sourcePoint" />
            <mxPoint x="440" y="940" as="targetPoint" />
          </mxGeometry>
        </mxCell>
        <mxCell id="MU5IiB2vjCHLdid9Sq_6-32" value="数据库" style="shape=cylinder3;whiteSpace=wrap;html=1;boundedLbl=1;backgroundOutline=1;size=15;" vertex="1" parent="WIyWlLk6GJQsqaUBKTNV-1">
          <mxGeometry x="530" y="1160" width="60" height="80" as="geometry" />
        </mxCell>
        <mxCell id="MU5IiB2vjCHLdid9Sq_6-35" value="布隆运算" style="rhombus;whiteSpace=wrap;html=1;" vertex="1" parent="WIyWlLk6GJQsqaUBKTNV-1">
          <mxGeometry x="485" y="980" width="150" height="80" as="geometry" />
        </mxCell>
        <mxCell id="MU5IiB2vjCHLdid9Sq_6-36" value="" style="endArrow=classic;html=1;entryX=0.5;entryY=0;entryDx=0;entryDy=0;entryPerimeter=0;exitX=0.5;exitY=1;exitDx=0;exitDy=0;" edge="1" parent="WIyWlLk6GJQsqaUBKTNV-1" source="MU5IiB2vjCHLdid9Sq_6-35" target="MU5IiB2vjCHLdid9Sq_6-32">
          <mxGeometry width="50" height="50" relative="1" as="geometry">
            <mxPoint x="510" y="1080" as="sourcePoint" />
            <mxPoint x="440" y="940" as="targetPoint" />
          </mxGeometry>
        </mxCell>
        <mxCell id="MU5IiB2vjCHLdid9Sq_6-37" value="" style="endArrow=classic;html=1;entryX=1;entryY=0.5;entryDx=0;entryDy=0;exitX=0;exitY=0.5;exitDx=0;exitDy=0;" edge="1" parent="WIyWlLk6GJQsqaUBKTNV-1" source="MU5IiB2vjCHLdid9Sq_6-27" target="MU5IiB2vjCHLdid9Sq_6-35">
          <mxGeometry width="50" height="50" relative="1" as="geometry">
            <mxPoint x="390" y="990" as="sourcePoint" />
            <mxPoint x="440" y="940" as="targetPoint" />
          </mxGeometry>
        </mxCell>
        <mxCell id="MU5IiB2vjCHLdid9Sq_6-40" value="&lt;div&gt;kylin&lt;/div&gt;&lt;div&gt;clickhouse&lt;/div&gt;&lt;div&gt;hdfs&lt;/div&gt;&lt;div&gt;hive&lt;/div&gt;&lt;div&gt;fastdfs&lt;span&gt;&amp;nbsp;&lt;/span&gt;&lt;/div&gt;&lt;div&gt;hudi&lt;/div&gt;" style="shape=note;whiteSpace=wrap;html=1;backgroundOutline=1;darkOpacity=0.05;" vertex="1" parent="WIyWlLk6GJQsqaUBKTNV-1">
          <mxGeometry x="790" y="1320" width="80" height="100" as="geometry" />
        </mxCell>
        <mxCell id="MU5IiB2vjCHLdid9Sq_6-41" value="" style="endArrow=classic;html=1;exitX=0.5;exitY=1;exitDx=0;exitDy=0;exitPerimeter=0;" edge="1" parent="WIyWlLk6GJQsqaUBKTNV-1" source="MU5IiB2vjCHLdid9Sq_6-30" target="MU5IiB2vjCHLdid9Sq_6-40">
          <mxGeometry width="50" height="50" relative="1" as="geometry">
            <mxPoint x="390" y="960" as="sourcePoint" />
            <mxPoint x="440" y="910" as="targetPoint" />
          </mxGeometry>
        </mxCell>
        <mxCell id="MU5IiB2vjCHLdid9Sq_6-42" value="扩展日志库&lt;br&gt;" style="text;html=1;align=center;verticalAlign=middle;resizable=0;points=[];autosize=1;" vertex="1" parent="WIyWlLk6GJQsqaUBKTNV-1">
          <mxGeometry x="890" y="1169" width="80" height="20" as="geometry" />
        </mxCell>
        <mxCell id="MU5IiB2vjCHLdid9Sq_6-44" value="" style="endArrow=none;dashed=1;html=1;entryX=-0.033;entryY=0.588;entryDx=0;entryDy=0;entryPerimeter=0;" edge="1" parent="WIyWlLk6GJQsqaUBKTNV-1" target="MU5IiB2vjCHLdid9Sq_6-30">
          <mxGeometry width="50" height="50" relative="1" as="geometry">
            <mxPoint x="640" y="1020" as="sourcePoint" />
            <mxPoint x="590" y="1150" as="targetPoint" />
          </mxGeometry>
        </mxCell>
        <mxCell id="MU5IiB2vjCHLdid9Sq_6-45" value="" style="endArrow=none;dashed=1;html=1;dashPattern=1 3;strokeWidth=2;entryX=0;entryY=0.5;entryDx=0;entryDy=0;entryPerimeter=0;exitX=1;exitY=0.5;exitDx=0;exitDy=0;" edge="1" parent="WIyWlLk6GJQsqaUBKTNV-1" source="MU5IiB2vjCHLdid9Sq_6-35" target="MU5IiB2vjCHLdid9Sq_6-40">
          <mxGeometry width="50" height="50" relative="1" as="geometry">
            <mxPoint x="540" y="1200" as="sourcePoint" />
            <mxPoint x="690" y="1170" as="targetPoint" />
          </mxGeometry>
        </mxCell>
        <mxCell id="MU5IiB2vjCHLdid9Sq_6-47" value="数据展示系统" style="rounded=0;whiteSpace=wrap;html=1;" vertex="1" parent="WIyWlLk6GJQsqaUBKTNV-1">
          <mxGeometry x="230" y="1170" width="130" height="60" as="geometry" />
        </mxCell>
        <mxCell id="MU5IiB2vjCHLdid9Sq_6-48" value="" style="endArrow=classic;html=1;entryX=1;entryY=0.5;entryDx=0;entryDy=0;exitX=0;exitY=0.5;exitDx=0;exitDy=0;exitPerimeter=0;" edge="1" parent="WIyWlLk6GJQsqaUBKTNV-1" source="MU5IiB2vjCHLdid9Sq_6-32" target="MU5IiB2vjCHLdid9Sq_6-47">
          <mxGeometry width="50" height="50" relative="1" as="geometry">
            <mxPoint x="540" y="1100" as="sourcePoint" />
            <mxPoint x="590" y="1050" as="targetPoint" />
          </mxGeometry>
        </mxCell>
        <mxCell id="MU5IiB2vjCHLdid9Sq_6-54" value="" style="endArrow=classic;html=1;entryX=0.5;entryY=0.5;entryDx=0;entryDy=0;entryPerimeter=0;exitX=0;exitY=0.5;exitDx=0;exitDy=0;" edge="1" parent="WIyWlLk6GJQsqaUBKTNV-1" source="MU5IiB2vjCHLdid9Sq_6-8" target="MU5IiB2vjCHLdid9Sq_6-0">
          <mxGeometry width="50" height="50" relative="1" as="geometry">
            <mxPoint x="20" y="800" as="sourcePoint" />
            <mxPoint x="70" y="750" as="targetPoint" />
          </mxGeometry>
        </mxCell>
        <mxCell id="MU5IiB2vjCHLdid9Sq_6-67" value="生成数据&lt;br&gt;" style="text;html=1;align=center;verticalAlign=middle;resizable=0;points=[];autosize=1;" vertex="1" parent="WIyWlLk6GJQsqaUBKTNV-1">
          <mxGeometry x="425" y="780" width="60" height="20" as="geometry" />
        </mxCell>
        <mxCell id="MU5IiB2vjCHLdid9Sq_6-68" value="消费数据" style="text;html=1;align=center;verticalAlign=middle;resizable=0;points=[];autosize=1;rotation=90;" vertex="1" parent="WIyWlLk6GJQsqaUBKTNV-1">
          <mxGeometry x="820" y="910" width="60" height="20" as="geometry" />
        </mxCell>
      </root>
    </mxGraphModel>
  </diagram>
</mxfile>
